<?xml version="1.0" encoding="utf-8"?>
<!-- Generated by IcoMoon.io -->
<!DOCTYPE svg PUBLIC "-//W3C//DTD SVG 1.1//EN" "http://www.w3.org/Graphics/SVG/1.1/DTD/svg11.dtd">
<svg version="1.1" xmlns="http://www.w3.org/2000/svg" xmlns:xlink="http://www.w3.org/1999/xlink" width="64" height="64" viewBox="0 0 64 64">
<path fill="#000000" d="M32 6c-14.36 0-26 11.64-26 26s11.64 26 26 26 26-11.64 26-26-11.64-26-26-26zM36.078 41.566c-1.962 2.946-3.958 5.216-7.316 5.216-2.292-0.374-3.234-2.016-2.738-3.69l4.32-14.308c0.106-0.35-0.070-0.724-0.39-0.838-0.318-0.112-0.942 0.302-1.482 0.894l-2.612 3.142c-0.070-0.528-0.008-1.4-0.008-1.752 1.962-2.946 5.186-5.27 7.372-5.27 2.078 0.212 3.062 1.874 2.7 3.7l-4.35 14.378c-0.058 0.324 0.114 0.654 0.408 0.758 0.32 0.112 0.992-0.302 1.534-0.894l2.61-3.14c0.070 0.528-0.048 1.452-0.048 1.804zM35.496 22.878c-1.652 0-2.992-1.204-2.992-2.976s1.34-2.974 2.992-2.974 2.992 1.204 2.992 2.974c0 1.774-1.34 2.976-2.992 2.976z"></path>
</svg>
