<?xml version="1.0" encoding="utf-8"?>
<!-- Generated by IcoMoon.io -->
<!DOCTYPE svg PUBLIC "-//W3C//DTD SVG 1.1//EN" "http://www.w3.org/Graphics/SVG/1.1/DTD/svg11.dtd">
<svg version="1.1" xmlns="http://www.w3.org/2000/svg" xmlns:xlink="http://www.w3.org/1999/xlink" width="64" height="64" viewBox="0 0 64 64">
<path fill="#000000" d="M61.11 50.438l-25.038-42.872c-2.088-2.088-5.476-2.088-7.564 0l-25.040 42.872c-2.088 2.086-2.088 5.472 0 7.562h57.64c2.092-2.090 2.092-5.476 0.002-7.562zM29.984 22.956c0-1.658 1.344-3 3-3s3 1.342 3 3v14c0 1.656-1.344 3-3 3s-3-1.344-3-3v-14zM33.002 49.972c-1.656 0-3-1.34-3-3 0-1.656 1.344-3 3-3s3 1.344 3 3c0 1.66-1.344 3-3 3z"></path>
</svg>
